<svg id="_Layer_" data-name="&lt;Layer&gt;" xmlns="http://www.w3.org/2000/svg" viewBox="0 0 2760 1840"><defs><style>.cls-1{fill:#fff;}.cls-2{fill:#ebf3fa;}.cls-3{fill:#d2e0ff;}.cls-4{opacity:0.4;}.cls-5{fill:#b6cbfb;}.cls-6{fill:#e2eafd;}.cls-7{fill:#f77d48;}.cls-8{fill:#ffb27d;}.cls-9{fill:#6980e2;}.cls-10{fill:#1c4b8e;}.cls-11{fill:#531678;}.cls-12{fill:#233862;}.cls-13{fill:#8c9df4;}.cls-14{fill:#fca56b;}.cls-15{fill:#163560;}.cls-16{fill:#f99746;}.cls-17{fill:#ef873a;}.cls-18{fill:#9fb1ff;}.cls-19{fill:#7c9af2;}.cls-20{fill:#a4c0f4;}.cls-21{fill:#699dee;}.cls-22{fill:#568cdb;}.cls-23{fill:#ed7d2b;}.cls-24{fill:#e8783a;}.cls-25{fill:#24406d;}.cls-26{fill:#7185db;}.cls-27{fill:#ed975d;}.cls-28{fill:#d8653d;}.cls-29{fill:#e58339;}.cls-30{fill:#f3a36c;}.cls-31{fill:#8eb3ef;}.cls-32{fill:#f9ddbf;}.cls-33{fill:#e8945b;}.cls-34{fill:#ff9773;}.cls-35{fill:#ed985f;}.cls-36{fill:#9db0f4;}.cls-37{fill:#aec3ff;}.cls-38{fill:#0b0755;}.cls-39{fill:#304b77;}.cls-40{fill:#2c3a64;}.cls-41{fill:#060633;}</style></defs><title>Монтажная область 59</title><rect class="cls-1" width="2760" height="1840"/><path class="cls-2" d="M227.34,1534.53S-26,970.71,332.38,766s384.9-13.19,626.41-269.12S1505,204.83,1725.13,288.51s89.47,275.83,329.8,313.73,607.87,170,486.78,446.12,154.7,149,83.78,486.17Z"/><path class="cls-3" d="M934.25,998.65s84-169.38-15.83-278.43c0,0-19.7-20.89-47-2.79s16.14,54.44,35.05,86.51S954.05,929.32,934.25,998.65Z"/><path class="cls-3" d="M958.79,974.26s109-107.63,61.25-217.49c0,0-9.6-21.19-35.31-14.53s-2,46,4.06,75.52S992.23,926.36,958.79,974.26Z"/><path class="cls-3" d="M778.18,993.7s87.26-28.45,62.42-95.41c0,0-22.08-42.46-51.64-58.11,0,0-.86,92.35-18,91.13s8.38-102.84,8.38-102.84-74.88-56.18-108-59.46c0,0,34.12,97.1,17.78,91.69s-56.55-104.8-56.55-104.8S550.84,723.4,527.27,771s-6.54,77.08,5.4,82.71,92.81,20.54,88.65,30.6-62,16-90.47.6c0,0,17.15,89.38,62,93.9s63.83-20,91.48-16.73,46.1,14.57,31,19.2-60.18-9.41-85.88,4.94-45.78,22.34-6.59,38.81,113.55,25.73,134.43-2.79Z"/><path class="cls-3" d="M562.92,794.36S768.79,909.12,778.18,993.7c0,0-9.77,38.34-20.89,28.52C757.29,1022.22,820.21,962.83,562.92,794.36Z"/><g class="cls-4"><rect class="cls-5" x="1820.49" y="669.19" width="325.43" height="428.59" transform="translate(-74.32 190.49) rotate(-5.4)"/></g><polygon class="cls-6" points="2489.29 1053.58 2165.35 1081.52 2125.03 654.83 2448.97 626.89 2489.29 1053.58"/><g class="cls-4"><rect class="cls-5" x="1863" y="871.13" width="75.42" height="6.81" transform="translate(-73.84 182.69) rotate(-5.4)"/></g><g class="cls-4"><rect class="cls-5" x="1949.79" y="862.93" width="75.42" height="6.81" transform="translate(-72.69 190.82) rotate(-5.4)"/></g><g class="cls-4"><rect class="cls-5" x="1864.45" y="849.24" width="114.21" height="6.81" transform="translate(-71.69 184.55) rotate(-5.4)"/></g><g class="cls-4"><rect class="cls-5" x="1995.34" y="836.87" width="114.21" height="6.81" transform="translate(-69.95 196.83) rotate(-5.4)"/></g><g class="cls-4"><rect class="cls-5" x="1866.94" y="890.14" width="114.21" height="6.81" transform="translate(-75.53 184.97) rotate(-5.4)"/></g><g class="cls-4"><rect class="cls-5" x="1997.83" y="877.77" width="114.21" height="6.81" transform="translate(-73.79 197.23) rotate(-5.4)"/></g><g class="cls-4"><rect class="cls-5" x="1862.71" y="789.4" width="75.42" height="6.81" transform="translate(-66.16 182.3) rotate(-5.4)"/></g><g class="cls-4"><rect class="cls-5" x="1949.5" y="781.2" width="75.42" height="6.81" transform="translate(-65.01 190.46) rotate(-5.4)"/></g><g class="cls-4"><rect class="cls-5" x="1860.83" y="767.83" width="114.21" height="6.81" transform="translate(-64.05 183.85) rotate(-5.4)"/></g><g class="cls-4"><rect class="cls-5" x="1991.72" y="755.46" width="114.21" height="6.81" transform="translate(-62.3 196.11) rotate(-5.4)"/></g><g class="cls-4"><rect class="cls-5" x="1866.65" y="808.42" width="114.21" height="6.81" transform="translate(-67.84 184.58) rotate(-5.4)"/></g><g class="cls-4"><rect class="cls-5" x="1997.54" y="796.05" width="114.21" height="6.81" transform="translate(-66.1 196.86) rotate(-5.4)"/></g><path class="cls-7" d="M1995.06,992.15l-8.48,25.67h-10.89l27.84-81.6h12.6l27.84,81.6h-11.26L2024,992.15Zm26.88-8.23-8.12-23.49c-1.81-5.32-3-10.17-4.23-14.89h-.25c-1.21,4.72-2.42,9.81-4.11,14.77l-8,23.61Z"/><path class="cls-7" d="M2009.7,1047.68a65.39,65.39,0,1,1,0-130.77,2.22,2.22,0,0,1,0,4.44,60.95,60.95,0,1,0,52.89,91.26,2.22,2.22,0,0,1,3.85,2.21A65.61,65.61,0,0,1,2009.7,1047.68Z"/><path class="cls-8" d="M2214.26,1109.88s-14.89,4.07-17.25,5-9.53,5.38-8.28,6.56,10.09,6.59,13.1,5,7.26,1.38,11.78-8.07Z"/><path class="cls-9" d="M2323.27,1052.71s-35.87,35.83-54.52,44.39c-13.32,6.12-60.51,12.78-60.51,12.78l3,12.43s31.15,5.89,53.75,6.08c35.31.3,47.41-21.31,47.41-21.31Z"/><path class="cls-10" d="M2413.83,1507.37s-1.5,24.18-6.17,24.52c-.63,0-23.73,0-23.73,0l-29.5-.17s.2-7.11,8.82-8.61,23.05-7.56,28.27-19C2397,1492.21,2413.83,1507.37,2413.83,1507.37Z"/><path class="cls-11" d="M2415.53,1509s-9,3-16,3a58.85,58.85,0,0,1-14.91-2.12s-1.69-16.33-11-52.3c-4.87-18.85-11.82-43.09-21.72-73.21-27.36-83.25-35.68-132-36.44-136.57,0-.24-.05-.36-.05-.36l.09,0,84.11-36.93s-10.4,114.74,2.87,158.77a186.51,186.51,0,0,1,4.81,21.1C2415.73,1438.22,2415.53,1509,2415.53,1509Z"/><path class="cls-12" d="M2373.68,1457.62c-4.87-18.85-11.82-43.09-21.72-73.21-27.36-83.25-35.68-132-36.44-136.57,0-.13,0-.26,0-.4l84.11-36.93s-10.4,114.74,2.87,158.77C2404.39,1375.44,2373.68,1457.62,2373.68,1457.62Z"/><path class="cls-10" d="M2348.14,1507.37s-1.5,24.18-6.18,24.52c-.62,0-23.73,0-23.73,0l-29.49-.17s.19-7.11,8.81-8.61,23-7.56,28.28-19C2331.32,1492.21,2348.14,1507.37,2348.14,1507.37Z"/><path class="cls-11" d="M2300.45,1213.21s-1.09,74.35,11.77,165.64,8.5,130,8.5,130,8.84,2.86,12.41,3.15c9.09.74,18.4-2.13,18.4-2.13s18.42-91.32,13.14-137,25.21-156.79,25.21-156.79Z"/><path class="cls-8" d="M2360.09,1039.22,2343.67,1050l-15-4.23c-2.74-3.9-3.46-11.42-3.5-17.93a111.13,111.13,0,0,1,.59-11.94l22.15-9.78,8.26-3.64c0,.13-.64,6.79-.73,7.76C2354,1027.49,2360.09,1039.22,2360.09,1039.22Z"/><path class="cls-13" d="M2300.07,1233.88c20.44,19.74,97.78,16.42,102.55-5.32s-5.2-185.07-40.11-195.33c-7.24-2.13-46,10.39-46,10.39a245.74,245.74,0,0,0-10.07,36.14c-.77,3.94-3,45.67-4.72,84.72-.78,18.26-1.45,35.94-1.79,48.88C2299.65,1225.49,2299.63,1233.45,2300.07,1233.88Z"/><path class="cls-14" d="M2353.84,1010.54c-4.5,7.59-20.27,14.24-28.62,17.29a111.13,111.13,0,0,1,.59-11.94l22.15-9.78C2352.86,1006.05,2355.84,1007.14,2353.84,1010.54Z"/><path class="cls-8" d="M2317.45,1014.54s35.69,11.14,42.28-11.2,15.64-35.94-6.87-44-29.47-.84-33.48,6.08S2308.34,1011.07,2317.45,1014.54Z"/><path class="cls-15" d="M2320.78,963.28s2.27,26,7.65,24.86,11.29-3.55,10.5,4.29,5.23,21.26,13,21.23c16.62-.07,34.68-42.72,30.13-50.81C2368.91,939.51,2301.8,934.81,2320.78,963.28Z"/><path class="cls-9" d="M2326,1033.79c.46-.19,26.57-11.9,29.62-10.89s6.86,10.33,6.86,10.33l-46,10.4S2320.16,1036.27,2326,1033.79Z"/><path class="cls-9" d="M2300,1213.36c80.65-57.46,73.94-134.15,73.94-134.15-29.48,16.63-58.73,53.38-72.15,85.27C2301,1182.74,2300.3,1200.42,2300,1213.36Z"/><path class="cls-13" d="M2412.37,1370.76a26,26,0,0,1-11,6.45,25.84,25.84,0,0,1-25.52-6.65L2121.05,1113c-10-10.07-10.43-26.43-.54-36.57a25.81,25.81,0,0,1,36.82-.14l255.24,258A25.81,25.81,0,0,1,2412.37,1370.76Z"/><path class="cls-13" d="M2415,1330.07l-57.15-57.76a3.36,3.36,0,0,1,0-4.75l.84-.84a3.38,3.38,0,0,1,4.76,0l57.15,57.76a3.37,3.37,0,0,1,0,4.76l-.85.84A3.36,3.36,0,0,1,2415,1330.07Z"/><rect class="cls-9" x="2396.59" y="1319.28" width="13.49" height="4.67" transform="translate(1652.33 -1316.32) rotate(45.3)"/><path class="cls-9" d="M2401.4,1377.21a25.84,25.84,0,0,1-25.52-6.65l-54.06-54.64,9.57-9.46Z"/><polygon class="cls-16" points="2088 1079.62 2335.42 1329.66 2345.43 1320.64 2373.82 1295.11 2124.99 1043.63 2097.65 1070.23 2088 1079.62"/><polygon class="cls-17" points="2088 1079.62 2335.42 1329.66 2345.43 1320.64 2097.65 1070.23 2088 1079.62"/><path class="cls-9" d="M2069.69,1017.46a3.5,3.5,0,0,0-4.74,4.46l5.6,14,17.45,43.68,37-36-40.91-19.35Z"/><path class="cls-15" d="M2063.76,1018.92l6.79,17,13.53-11.66-17.31-8.2A2.22,2.22,0,0,0,2063.76,1018.92Z"/><path class="cls-8" d="M2220.36,1187.19c-5.68-1.31-9.5-5.61-10.3-6.36,0,0-2.42.17.4,5.34.24.43.76,1.54,1.16,2.33a.51.51,0,0,1-.43.72c-3.28.25-6.58-1-12.9.27-.87.18-1.13,2.27-1.09,3.16a8,8,0,0,0,1.7,5.51c1,1.34,3.86,2.79,10.19,5.34,2.41,1,9.3.24,15.77-2l5.16-2.39-1.6-9.6-1.3.27C2225.06,1190.23,2222.51,1187.72,2220.36,1187.19Z"/><path class="cls-13" d="M2348.87,1043.63s72.46,13.79-21.32,118.73c-15,16.78-96,38.63-96,38.63s-8.22-7-4.08-12.65c0,0,55.8-40.52,68.07-47,5.53-2.9,21.44-64.67,30.44-79.55S2348.87,1043.63,2348.87,1043.63Z"/><path class="cls-8" d="M2205.12,1114.88a37.11,37.11,0,0,1-7.3,1.61c-2.43,0-9.81,1.81-11.22,2.81-.57.4-.22,2.11,1.83,2.66a12.16,12.16,0,0,0,4.71-.37c3.42-.73,7.71.23,9.24,0C2206.16,1121.14,2205.12,1114.88,2205.12,1114.88Z"/><path class="cls-11" d="M1403.51,944.66a361.14,361.14,0,0,0,161.21,37.64c194.75,0,353.19-153,353.19-341.11,0-136.56-83.52-254.64-203.81-309.07l-8.21,16.22c114.08,51.51,193.32,163.41,193.32,292.85,0,178.13-150.06,323-334.49,323a342,342,0,0,1-153-35.82Z"/><polygon class="cls-11" points="1650.84 421.21 1665.56 429.71 1720.26 334.98 1705.12 327.19 1650.84 421.21"/><polygon class="cls-11" points="1411.74 928.42 1423.77 940.75 1476.05 853.31 1460.93 844.88 1411.74 928.42"/><rect class="cls-11" x="1554.56" y="973.59" width="28.05" height="362.19" transform="translate(3137.17 2309.38) rotate(180)"/><rect class="cls-11" x="1489.7" y="1158.17" width="157.77" height="20.32" transform="translate(3137.17 2336.66) rotate(180)"/><path class="cls-18" d="M1800.29,732.49a258.07,258.07,0,0,1-176.09,154h0l-.31.17a18.38,18.38,0,0,1-7.7,1.74h0A258.94,258.94,0,0,1,1389.61,830C1309.8,759.58,1278.85,644,1320.8,539.67a258.4,258.4,0,1,1,479.49,192.82Z"/><path class="cls-13" d="M1618.79,471.85c-2.75,4.81-9.61,5.25-14.94,3.72s-10.43-4.44-16-4.24c-6.72.26-12.68,5.43-15,11.77s-1.24,13.52,1.63,19.6c3.17,6.68,8.51,14.47,4.34,20.55-4,5.84-13.45,4-18.7-.77S1551.58,511,1545.75,507c-7.33-5.05-17.25-4.72-25.66-1.8s-15.79,8.12-23.52,12.53c-2.65,1.5-5.57,3-8.59,2.56s-5.8-3.57-4.66-6.4c.78-1.89,2.87-2.82,4.55-4,7.25-5.13,6.81-16.87,1.12-23.68s-14.86-9.64-23.64-11c-.23,10.91-17,16.49-16,27.35.65,6.81,8,10.52,13.93,13.83,10.64,5.9,19.92,14.3,31.24,18.79,21.55,8.55,49.22,2.61,66,18.65,6.29,6,9.89,14.33,12.19,22.72,5.48,20,3.6,43.24-9.94,59-15.63,18.13-44.71,31.62-46.2,31.42-18.43-2.6-28.63-8.07-35-6.33-24,6.56-16,46.67-21.21,63.68-14.37,46.9-37.61,69.86-40.44,68.53-32.58-15.22-53.19-52.73-48.58-88.4,2.41-18.67,11-36.35,11.63-55.16.59-16.48-4.92-32.54-6.8-48.91a113.55,113.55,0,0,1,25.39-84.72c4.19-5,8.91-9.77,11.57-15.75s2.78-13.68-1.74-18.41c-5.36-5.63-14.6-4.78-21.91-2.12s-14.51,6.75-22.27,6.25a20.78,20.78,0,0,1-12.63-5.67,258.92,258.92,0,0,1,159.73-98.11c10.67,8.44,7.09,28.3,15.15,38.63,12.44,16,40.08,7.88,55.73,20.73,3,2.45,5.4,5.6,8.57,7.82,5.25,3.67,12,4.46,17.67,7.38S1622,466.29,1618.79,471.85Z"/><path class="cls-19" d="M1359.73,644.8q1,4.31,2,8.61a15.61,15.61,0,0,1,.57,6,7.76,7.76,0,1,1-15-3.76c.84-2.51,3-4.78,2.5-7.38-1-5.42-12-11.13-2.56-13.86C1354.22,632.4,1358.5,639.05,1359.73,644.8Z"/><path class="cls-1" d="M1573.55,894.21A259.29,259.29,0,0,1,1389.61,830c8.16-1.57,16.57-2.14,23.79,1.63a21.89,21.89,0,0,1,5.93,4.53,22.63,22.63,0,0,0,3.65,3.67,16.3,16.3,0,0,0,5.09,1.91,105.12,105.12,0,0,1,49.69,29.53c7.09-1.31,11.9-9.2,19.1-9.59,4.58-.25,8.65,2.63,12.81,4.57,8.48,4,18.15,4.13,27.5,4.64s19.14,1.62,26.79,7C1568.29,880.93,1573.42,888,1573.55,894.21Z"/><path class="cls-13" d="M1769.72,484.31A259.43,259.43,0,0,1,1817.25,606c-3.46,2.54-7,5-10.45,7.33-5,3.45-10.07,7.17-13.24,12.37-2.74,4.53-3.86,9.88-6.54,14.44-8.38,14.25-29.78,17.79-35.91,33.14-5.56,13.91,4.58,28.75,6.93,43.54a42.8,42.8,0,0,1-13.34,37.76c-5.2,4.7-11.51,8-16.81,12.62-25.42,22-22.13,66.38-49.15,86.35-11.3,8.36-26.14,10.82-37.36,19.27-5.86,4.41-10.64,10.39-17.18,13.68h0l-.31.17a18.38,18.38,0,0,1-7.7,1.74h0c-5,0-9.84-2-11.64-6.56-2.34-5.91,1.58-12.24,4.76-17.74,9.62-16.61,13.67-35.79,17.29-54.65,2.92-15.18,5.52-31.5-.83-45.58-2.35-5.2-5.82-9.83-8.16-15-3.66-8.19-4.27-17.85-.93-26.17s10.85-15,19.66-16.73c3.41-.65,7-.61,10.14-2.19,10-5.1,6.25-20.64,11.63-30.54,5.22-9.57,18.06-11.86,28.87-10.57s21.6,5.06,32.36,3.34,21.31-12.22,17.71-22.51c-4.71-13.48-28.17-14.28-30-28.44-.62-4.67,1.57-9.63-.17-14-1.4-3.53-5-5.71-6.77-9.06-2.08-3.92-1.36-8.85-3.41-12.78-3.47-6.63-13.87-8.77-14.72-16.2-.93-8.2,10-11.42,16.64-16.41,8.87-6.73,10.12-21.4,2.51-29.53-5.55-5.92-15.6-11.11-13-18.8,2.08-6.17,10.52-6.62,17-5.9l35,3.88c13.35,1.48,17.77-1.09,26.66-9.69A14.1,14.1,0,0,1,1769.72,484.31Z"/><path class="cls-3" d="M1449.38,1315.56H1752.5a47.22,47.22,0,0,1,47.22,47.22v29.92a46.17,46.17,0,0,1-46.17,46.17H1449.38a0,0,0,0,1,0,0V1315.56A0,0,0,0,1,1449.38,1315.56Z" transform="translate(3249.1 2754.43) rotate(180)"/><path class="cls-20" d="M1188.08,1366.29v18.56a59.64,59.64,0,0,0,6.42,27.17c8.21,16.06,23.48,26.85,41,26.85H1809.1c3.8,0,6.87-3.51,6.87-7.83v-2.78c0-4.32-3.07-7.83-6.87-7.83H1459.41a52.14,52.14,0,0,1-4.91-8.41,55.93,55.93,0,0,1-5.12-23.58v-23.58a56.13,56.13,0,0,1,1.41-12.55,52.29,52.29,0,0,1,8.11-18.31h350.2c3.8,0,6.87-3.5,6.87-7.83v-2.77c0-4.33-3.07-7.84-6.87-7.84H1232.57c-20.32,0-37.46,15.53-42.78,36.75A57.75,57.75,0,0,0,1188.08,1366.29Z"/><polygon class="cls-20" points="1799.72 1377.22 1757.25 1379.29 1799.72 1380.54 1799.72 1377.22"/><polygon class="cls-20" points="1799.72 1396.56 1698.67 1398.64 1799.72 1399.88 1799.72 1396.56"/><path class="cls-5" d="M1629.64,1438.61H1930a41.87,41.87,0,0,1,41.87,41.87v9.45a44.59,44.59,0,0,1-44.59,44.59H1629.64a0,0,0,0,1,0,0v-95.91A0,0,0,0,1,1629.64,1438.61Z"/><path class="cls-3" d="M1303.26,1438.61h340.4a42.57,42.57,0,0,1,42.57,42.57v9.8a43.54,43.54,0,0,1-43.54,43.54H1303.26a0,0,0,0,1,0,0v-95.91A0,0,0,0,1,1303.26,1438.61Z"/><path class="cls-5" d="M1292,1520.18h416.58a6.47,6.47,0,0,1,6.47,6.47v1.41a6.47,6.47,0,0,1-6.47,6.47H1292a6.46,6.46,0,0,1-6.46-6.46v-1.42A6.46,6.46,0,0,1,1292,1520.18Z"/><rect class="cls-5" x="1285.49" y="1438.61" width="429.51" height="14.35" rx="6.47"/><polygon class="cls-5" points="1303.26 1486.57 1349.68 1488.18 1303.26 1489.15 1303.26 1486.57"/><polygon class="cls-5" points="1303.26 1464.49 1413.72 1466.11 1303.26 1467.08 1303.26 1464.49"/><path class="cls-21" d="M1546.79,1465.79a22.42,22.42,0,0,0-6.3,10.89,19.06,19.06,0,0,0-.49,3.79c-.26,9,0,29.37,0,29.37l-14-10.18-13.94,10.18v-27.61c0-5.22,1.2-10.29,3.42-13.62,1.08-1.61,2.38-2.82,3.86-2.82Z"/><path class="cls-22" d="M1546.79,1465.79a22.42,22.42,0,0,0-6.3,10.89l-28,.4s1.1-9.69,6.88-11.29Z"/><path class="cls-3" d="M1497.61,1174.9h325a52.38,52.38,0,0,1,52.38,52.38v37.31a51.22,51.22,0,0,1-51.22,51.22H1497.61a0,0,0,0,1,0,0V1174.9A0,0,0,0,1,1497.61,1174.9Z" transform="translate(3372.58 2490.72) rotate(180)"/><path class="cls-5" d="M1497.43,1229.58v30.33c.08,12.95,6.28,24.19,15.4,30.2a27.61,27.61,0,0,0,15.19,4.63H1884.9c4.18,0,7.57,3.92,7.57,8.75v3.58c0,4.83-3.39,8.75-7.57,8.75H1268.38c-17.69,0-33.32-10.16-42.76-25.71a66.59,66.59,0,0,1-9.45-34.63v-23.92a63.59,63.59,0,0,1,4.87-24.64c7.92-19,24.71-32,44.15-32H1884.9c4.18,0,7.57,3.92,7.57,8.75v3.58c0,4.83-3.39,8.75-7.57,8.75h-358c-8.56,0-16.3,4.21-21.71,10.94A36.48,36.48,0,0,0,1497.43,1229.58Z"/><polygon class="cls-5" points="1874.97 1245.36 1829.22 1247.73 1874.97 1249.16 1874.97 1245.36"/><polygon class="cls-5" points="1874.97 1212.93 1766.13 1215.3 1874.97 1216.73 1874.97 1212.93"/><path class="cls-16" d="M1529.44,1214.83s7.18,4.47,9.56,11.81a14.81,14.81,0,0,1,.74,4.11c.4,9.76,0,31.84,0,31.84l21.21-11,21.15,11v-29.93c0-5.66-1.81-11.17-5.18-14.77-1.63-1.75-3.62-3.06-5.86-3.06Z"/><path class="cls-23" d="M1529.44,1214.83s7.18,4.47,9.56,11.81l42.5.44s-1.67-10.52-10.44-12.25Z"/><path class="cls-8" d="M584.34,1058s10.37-14.48,18.33-19.78,29.19-10.86,29-7-12.56,19.34-12.56,24-17.57,4.93-21,7.18-4.11,4.34-4.11,4.34Z"/><path class="cls-16" d="M598,1070.93s-30.68,62.44-59.79,63.74a15.72,15.72,0,0,1-5.15-.66H533c-.45-.12-.91-.28-1.38-.43l-.07,0c-4.43-1.58-9.28-4.69-14.29-9q-2.28-1.93-4.6-4.15h0a148.45,148.45,0,0,1-10.75-11.62,246.54,246.54,0,0,1-26.57-39.46c-.17-.29-.32-.58-.47-.87-10.79-20-10.58-35.17-6.95-45.87a40.3,40.3,0,0,1,14.7-20h0a49.47,49.47,0,0,1,5.43,1.63c8,2.87,23.09,9.93,31.6,24.72a46.76,46.76,0,0,1,3.91,8.84c9.07,28.24,15.41,50.72,20.22,49.26,7.66-2.31,39-34.5,39-34.5s3.79,1.18,8.73,5.75A22.19,22.19,0,0,1,598,1070.93Z"/><path class="cls-24" d="M501.91,1108.8h0c10.27,12.26,20.78,21.58,29.65,24.73l.07,0,1.37.43.08,0h0c-.32-.22-9.81-5.14-11.3-14.28-1.52-9.33,8.36-17-16.47-31.41C490.83,1079.9,501.91,1108.8,501.91,1108.8Z"/><path class="cls-25" d="M524.64,1537.06H456.41c-4.89-3.31,1.32-35.72,1.32-35.72s18.62-7.07,21.84,7.3,23.71,18.92,34.56,20.67C521.55,1530.52,523.89,1534.6,524.64,1537.06Z"/><path class="cls-13" d="M420.6,1201.14s2.15,39.8,4.84,85.91c1.94,33.07,4.14,69.39,6,96.59.26,3.61.51,7.06.74,10.32.07,1,.15,2,.22,3,4.89,61,21.22,114.42,21.22,114.42,19.18,4,27.85-3.35,27.85-3.35s13.21-154.9,18.11-217.37c3.6-46,6.67-112.94,6.67-112.94Z"/><path class="cls-26" d="M425.44,1287.05c1.94,33.07,4.14,69.39,6,96.59,12.54-29.58,38.16-144.87,38.16-144.87Z"/><path class="cls-25" d="M423.45,1537.06H355.23c-4.89-3.31,1.32-35.72,1.32-35.72s18.62-7.07,21.84,7.3,23.71,18.92,34.56,20.67C420.37,1530.52,422.71,1534.6,423.45,1537.06Z"/><path class="cls-13" d="M487.75,1193.22s-48.72,121.27-64.3,167.24c-11.09,32.74-42.38,147.61-42.38,147.61s-13.6,4.14-25-3.86c0,0-11.64-117.36,11.88-150.45,12.47-17.56,3.1-182.5,53.67-183.92S487.75,1193.22,487.75,1193.22Z"/><path class="cls-16" d="M513.4,1172.79c-1.07,13.91-4,23.86-10.44,23.86A216.4,216.4,0,0,1,440.13,1207c-6.69,0-16.15-1.25-24-2.57-8-1.36-14.37-2.73-14.37-2.73-6.88-1.58-13.55-3.93-13.41-14.37,0-2.09,0-8.2-.15-17-.06-4.68-.13-10.11-.21-16.1s-.13-12.37-.2-19.17c-.15-16-.26-33.82-.21-51h0c.05-17,.26-33.35.75-46.55.62-16.3,1.67-27.81,3.4-29.83h0c2.3-2.64,6.52-4.9,12-6.69,19.48-6.35,55.08-6.86,78.88,1.64h0c1.73.63,3.4,1.29,5,2a43.68,43.68,0,0,1,11.14,6.92c2.14,1.88,8.86,12.91,11.22,26.22a52.42,52.42,0,0,1,.83,8.38c.19,12.52,1.12,45.18,1.82,74.3C513.28,1145.76,513.72,1168.41,513.4,1172.79Z"/><path class="cls-8" d="M430.31,999.28c9,9.75,39.23,8.3,38.33-.21-.12-1.05-.32-7.28-.42-8.25-.08-.77-.15-1.53-.21-2.24-.21-2.1-.38-4-.51-5.56-.4-4.67-.53-7.2-.53-7.2h0c-.87-.24-20.3-5.76-30-8.05-3.25-.76-5.4-1.17-5.36-.89C434.58,988.6,427.36,996.08,430.31,999.28Z"/><path class="cls-27" d="M435.94,974.18s8.12,8.25,31.56,8.84c-.4-4.67-.53-7.2-.53-7.2h0c-.87-.24-20.3-5.76-30-8.05C435.27,968.47,437.52,973,435.94,974.18Z"/><path class="cls-8" d="M472.91,974.67a73.21,73.21,0,0,1-13.5,3.14c-11.07,1.5-25.61.62-30.18-12.77-7.7-22.53-17.54-36,5.12-45.24,12.12-4.93,19.88-5.19,25.15-3.31,4.58,1.63,7.28,4.87,9.32,8.07C473.22,931.46,482.07,970.72,472.91,974.67Z"/><path class="cls-12" d="M467.12,907.13A10.68,10.68,0,0,1,463,926.57c-5.71,1-10.51,1.21-13.28,2.44-5.63,2.5-10.47,5.16-9.14,13.9.45,3,1.9,6.59-5.75,4.79a3.75,3.75,0,0,0-2.78.17c-3.18,1.88.88,11,2.1,13,0,0,1.76,6.54-2.14,9.73-.48.38-8.15,3.73-26.64-24.57-2.91-4.45-5.69-14.46-1.2-24.09s17-21.83,40.55-21.83C450.89,900.09,460.11,902.52,467.12,907.13Z"/><path class="cls-1" d="M473.08,960.12s.47,2.92-6.31,5.25c0,0-5.69,2-6.73-1C460,964.33,464.56,960,473.08,960.12Z"/><path class="cls-24" d="M388,1154.21c3.44,16,9,21.54,12.18,15.58,11-20.9,10.89-29.67,6.11-44.49s12-38,0-47.88c-11.73-9.65-18.42,5.92-18.71,6.61C387.5,1108.52,387.75,1134.39,388,1154.21Z"/><path class="cls-8" d="M388.52,1152.16s8.1,13.26,13.42,12.79,12.49-2.45,16.64,1.5,10.81,14.15,8.95,16.87-9.37.3-14.76-2.67-13.88,1.47-18.4-1.91S379,1162,379,1162Z"/><path class="cls-16" d="M401.84,1071.73c-3.16,1.48-8.79,6.43-14.27,12.3h0c-7.17,7.68-14.07,16.91-14.87,21.89-.61,3.77,7.38,17.22,15.08,29.11,7,10.71,13.66,20.16,13.66,20.16-2.05,5.22-8.45,11.18-13.25,15.11-3.23,2.66-5.75,4.4-5.75,4.4-32.94-26.23-45.3-42.42-49.27-61.62-5.54-26.67,19.42-61.86,38.48-84.07,10.81-12.61,19.71-21,20.07-21.37h0c9.42,4.12,13.75,22.76,14.44,38.9C406.72,1059.15,405.05,1070.22,401.84,1071.73Z"/><path class="cls-8" d="M401.94,1165s7.1-3.1,9.38-4.43,1.77.82,1.07,1.9-2.6,3.48-5.38,3.73A8.85,8.85,0,0,1,401.94,1165Z"/><path class="cls-7" d="M1191.83,1236.93a324.09,324.09,0,0,1-124,231c-1.48,1.15-2.93,2.29-4.43,3.39a323.38,323.38,0,0,1-193.19,65.39c-3.64,0-7.28,0-10.94-.13-5.47-.13-11-.42-16.49-.84-109.89-8.53-202.74-70.8-254.82-159-1.8-3-3.54-6.12-5.24-9.22a325.44,325.44,0,0,1,.44-312.26c1.75-3.2,3.58-6.36,5.43-9.48A326.42,326.42,0,0,1,701.21,932.92c1.71-1,3.42-2.06,5.18-3a325.83,325.83,0,0,1,223.71-37c3.4.65,6.77,1.37,10.11,2.13a324.26,324.26,0,0,1,184,117.12c2.46,3.16,4.87,6.34,7.19,9.57a323.58,323.58,0,0,1,55.32,127.18c.68,3.36,1.3,6.76,1.85,10.16A325,325,0,0,1,1191.83,1236.93Z"/><path class="cls-28" d="M822.75,1149.56c-2.28-2.43-4.59-4.83-7-7.17a328.19,328.19,0,0,0-207.54-95.73c-6.6-.51-13.14-.83-19.67-.93-1.85,3.12-3.68,6.28-5.43,9.48,8.05,0,16.19.34,24.36,1a318.6,318.6,0,0,1,200.57,92c2.36,2.34,4.67,4.69,6.95,7.12,60.06,63.44,94.14,151,86.86,244.79a318.22,318.22,0,0,1-42.63,136.45c3.66.12,7.3.16,10.94.13a327.9,327.9,0,0,0,41.22-135.84C918.89,1304.69,884.12,1214.83,822.75,1149.56Z"/><path class="cls-28" d="M1186.73,1148.89a319.48,319.48,0,0,1-174-103.64c-2.35-2.72-4.68-5.49-7-8.3A320.24,320.24,0,0,1,940.21,895c-3.34-.76-6.71-1.48-10.11-2.13a329.52,329.52,0,0,0,66.25,147.49q3.31,4.21,6.79,8.29a328.65,328.65,0,0,0,185.44,110.38C1188,1155.65,1187.41,1152.25,1186.73,1148.89Z"/><path class="cls-28" d="M1058.61,1471.75c-9-93.47-33.52-179.71-72.78-256.33A627.9,627.9,0,0,0,864.32,1051c-83.9-81.5-164-113.33-164.84-113.64l3.47-8.91c.82.32,82.45,32.68,167.71,115.38a637.68,637.68,0,0,1,123.54,167c39.89,77.77,64.76,165.25,73.92,260Z"/><path class="cls-28" d="M1131.41,1021.71c-32.78,1.21-72.52,7.59-118.66,23.54q-4.77,1.65-9.61,3.42a622.53,622.53,0,0,0-89.2,41.55q-4.2,2.34-8.47,4.81a871.22,871.22,0,0,0-82.72,54.53c-2.54,1.87-5.14,3.8-7.71,5.75q-25,18.81-51.18,41c-97.42,82.77-165.77,167.53-175.9,180.33-1.8-3-3.54-6.12-5.24-9.22,16.23-20.23,82.53-100.24,174.6-178.51q25.47-21.64,50.77-40.77,3.87-2.94,7.71-5.8a899.25,899.25,0,0,1,83.06-55c2.81-1.67,5.62-3.28,8.43-4.88q17-9.57,33.63-17.88a601.08,601.08,0,0,1,55.43-24.21c3.16-1.19,6.3-2.34,9.45-3.43,40.82-14.47,80.4-22.78,118.42-24.81C1126.68,1015.3,1129.09,1018.48,1131.41,1021.71Z"/><path class="cls-24" d="M452.24,1006.87c-12.67,0-28.5-5.68-28.32-9.87l2.58-9.51s10.5,2.7,19.57,5.74a8.77,8.77,0,0,1,5.83,6.59C452.67,1003.63,452.75,1006.87,452.24,1006.87Z"/><path class="cls-24" d="M474,1000s-9.58,7.82-21.72,6.86c1.33-2.78,2-8.78,4.46-11.58,5.2-5.85,12.91-7.8,12.91-7.8Z"/><path class="cls-29" d="M457.26,1016.74a10,10,0,0,0,1.7-.28A2.29,2.29,0,0,1,457.26,1016.74Z"/><path class="cls-13" d="M519.68,1029l-9.67,8.8-34.67,31.59-8.68,7.9-60.49-30.7-17.85-9.06L371.65,1029c10.81-12.61,19.71-21,20.07-21.37h0c2.3-2.64,6.52-4.9,12-6.69l56.48,28.66,7.7-7,19.73-18,.43-.38C496.12,1007.1,511.17,1014.16,519.68,1029Z"/><path class="cls-11" d="M469,1200.45l-.68-.68c5.32-5.28,8.41-28.13-.05-39.38-8.78-11.69-1.58-27.51,7.25-37.51,5.14-5.82.62-10.61-5.62-17.25-3.78-4-8-8.55-11-14.24-5.23-10.24-2.25-18.29.64-26.07a52.84,52.84,0,0,0,3.38-12c1.52-12.6-8.17-36.35-8.27-36.59l.89-.37c.4,1,9.89,24.23,8.34,37.07a53.09,53.09,0,0,1-3.44,12.17c-2.94,7.94-5.72,15.44-.68,25.3,2.84,5.56,7.07,10.06,10.8,14,6.35,6.75,11.36,12.07,5.64,18.55-8.59,9.73-15.63,25.07-7.2,36.29C477.75,1171.39,474.51,1195,469,1200.45Z"/><path class="cls-11" d="M453.69,1014.42s-.89,5.39,0,6.12,3.45.8,3.53-.73-.74-5.53-1.38-5.77S453.79,1013.69,453.69,1014.42Z"/><path class="cls-18" d="M1150.57,866l-3.72-1.22a7.59,7.59,0,0,1-4.83-9.58l10.29-31.24a7.61,7.61,0,0,1,9.59-4.83l5.33,1.76a1.49,1.49,0,0,1,.94,1.88,1.48,1.48,0,0,1-1.87.94l-5.34-1.76a4.64,4.64,0,0,0-5.83,2.94l-10.29,31.24a4.62,4.62,0,0,0,2.94,5.83l3.72,1.22a4.62,4.62,0,0,0,5.83-2.94l6.84-20.73a1.48,1.48,0,0,1,2.82.93l-6.84,20.73A7.59,7.59,0,0,1,1150.57,866Z"/><path class="cls-18" d="M1141.66,898.41l-6.68-2.2c-6.19-2-9.45-9.11-7.26-15.74l15.48-47a1.48,1.48,0,0,1,2.82.93l-15.48,47c-1.68,5.08.73,10.46,5.37,12l6.68,2.2c4.64,1.53,9.77-1.36,11.45-6.44l17.63-53.49c1.68-5.08-.73-10.46-5.37-12a1.48,1.48,0,1,1,.93-2.82c6.19,2,9.45,9.11,7.26,15.74l-17.63,53.49C1154.67,896.71,1147.85,900.45,1141.66,898.41Z"/><path class="cls-18" d="M1033.07,611.81l-1.74,3.52a7.6,7.6,0,0,1-10.16,3.45l-29.49-14.55a7.6,7.6,0,0,1-3.45-10.16l2.48-5a1.49,1.49,0,0,1,2.67,1.31l-2.49,5a4.63,4.63,0,0,0,2.1,6.18l29.5,14.54a4.62,4.62,0,0,0,6.18-2.09l1.73-3.52a4.61,4.61,0,0,0-2.09-6.18l-19.58-9.66A1.48,1.48,0,1,1,1010,592l19.58,9.65A7.6,7.6,0,0,1,1033.07,611.81Z"/><path class="cls-18" d="M1064,625.16l-3.11,6.3c-2.89,5.85-10.33,8.09-16.6,5L999.91,614.6a1.49,1.49,0,0,1,1.31-2.67l44.34,21.87c4.8,2.37,10.46.73,12.62-3.65l3.11-6.31c2.16-4.38,0-9.87-4.78-12.23L1006,586.7c-4.8-2.37-10.46-.73-12.62,3.65a1.49,1.49,0,1,1-2.67-1.31c2.89-5.85,10.34-8.1,16.6-5l50.51,24.9C1064.09,612,1066.84,619.31,1064,625.16Z"/><path class="cls-16" d="M2117.65,1336.15l-3.19,2.28a7.61,7.61,0,0,1-10.59-1.76l-19.11-26.76a7.59,7.59,0,0,1,1.76-10.58l4.57-3.27a1.48,1.48,0,0,1,1.72,2.42l-4.56,3.26a4.63,4.63,0,0,0-1.08,6.45l19.12,26.75a4.61,4.61,0,0,0,6.44,1.07l3.19-2.27a4.63,4.63,0,0,0,1.07-6.45l-12.69-17.76a1.48,1.48,0,1,1,2.42-1.72l12.69,17.76A7.6,7.6,0,0,1,2117.65,1336.15Z"/><path class="cls-16" d="M2138.56,1362.51l-5.72,4.08c-5.3,3.8-12.93,2.25-17-3.43l-28.74-40.23a1.48,1.48,0,0,1,2.42-1.72l28.74,40.22c3.11,4.36,8.87,5.59,12.85,2.75l5.71-4.09c4-2.84,4.68-8.69,1.57-13l-32.74-45.81c-3.11-4.36-8.87-5.59-12.85-2.75a1.48,1.48,0,0,1-1.72-2.42c5.3-3.79,12.93-2.25,17,3.44l32.74,45.82C2144.88,1351,2143.87,1358.72,2138.56,1362.51Z"/><path class="cls-8" d="M1357.67,943.73c-12.08,75.2-22,156.24-17.73,198.91,3.55,11.95,14.53,15.93,24.23,17.48l-6.67,7.27-18.78,1.08-25-9.88a100.6,100.6,0,0,0,2.6-13.58c1.33-10-3.32-33-3.32-33s-12.22-79.2-5.27-97a72.21,72.21,0,0,0,4.08-17.12h0c2-16,.9-35.23-.45-53.92-1.46-20.31-3.16-40-1.24-54.17A1026.63,1026.63,0,0,0,1318.94,769h49.17s13.93,39.58,7.43,73.52C1370,871.4,1363.59,906.86,1357.67,943.73Z"/><path class="cls-30" d="M1311.76,998c2-16,.9-35.23-.45-53.92l36.31-14.68,10.05,14.38C1356.13,945.62,1329.11,977.48,1311.76,998Z"/><path class="cls-8" d="M1453,719.34a92.36,92.36,0,0,1,9.56-8.8c4-2.91,15.18-5.83,16.31-.94.51,2.17-3.42,7-6.26,8.7s-3.27,3.89-6.28,7-10.37,3.22-10.37,3.22Z"/><path class="cls-12" d="M1289.41,670.69c-2.34-4.52,51.11-20.79,52,23.8,0,0,100.13-2.46,52.32-58.27-16.55-19.32-14.85-35.3-14.35-50.17S1369,528,1332,532.31c0,0-9.7-3.95-21.81,2.33C1282.6,548.93,1220.89,687.13,1289.41,670.69Z"/><path class="cls-7" d="M1358.85,723.75a97.53,97.53,0,0,0,10,15.07c7.75,9.7,19.69,20.91,34.68,23.12,7.16,1.06,14.17-.48,20.6-3.34h0c18.21-8.08,31.9-26.67,31.9-26.67a15,15,0,0,0-2-14.69s-36.77,8.27-40.28,6.52-23.92-60.6-28.79-68-21.44-11.23-21.44-11.23Z"/><path class="cls-31" d="M1368.82,738.82c7.75,9.7,19.69,20.91,34.68,23.12,7.16,1.06,14.17-.48,20.6-3.34-.71.09-18.89,2.34-26.14-10.63-7.4-13.23-15.39-34.24-26.38-27.24C1366.84,723.75,1367.05,731.27,1368.82,738.82Z"/><path class="cls-8" d="M1255.17,1171.86h-17c-4.92,0-10.53-3.77-11.9-12.67s-11.49-13.74-13.68-21c-1.5-5,2-8.57,5.41-11.32,1.54-1.26,3-2.34,4-3.31,3.45-3.48,6.7-18.51,6.7-18.51l17.87,9.41s-8.42,14.31-3.56,30.41c2.27,7.52,4.3,14.46,9.32,18.78a16.38,16.38,0,0,0,4.1,2.6C1264.29,1169.77,1255.17,1171.86,1255.17,1171.86Z"/><path class="cls-7" d="M1268.14,694.49a250.93,250.93,0,0,0,0,29.14c.63,10.53,11.28,24.64,12.79,28.13,3.8,8.76,8.08,10.18,8.08,10.18l33.09,8.11,11.64,2.85,36.7-11s16.72-46.65,10-72.92a202.29,202.29,0,0,0-17-44.5s-42.19-11-74.88-1.43Z"/><path class="cls-8" d="M1291.11,767.34s-27.73,37.19-30.31,62.34,21.93,94.75,16.42,119.26c-4.09,18.19-25.87,32.63-31.89,78.5-2.09,15.93-9.63,47.8-16.58,77.61l15.36,15.07c36.59-83.38,74.42-135.88,76.65-154.32,1.58-13,9-81.69,39-132.36,7.2-12.16-4.42-60.54-4.42-60.54Z"/><path class="cls-11" d="M1377.27,853c-4.08,49.67-8.87,91.5-8.87,91.5s-23.16,15.61-55.94,17.59h0a108.41,108.41,0,0,1-49.64-8.59s-6.74-120-2.45-139.06,23.3-45.39,23.3-45.39l85.52,3.3S1381.35,803.29,1377.27,853Z"/><path class="cls-23" d="M1371,760.29s-7.3,5.77-21.79,6.06c-17.31.35-60.21-4.41-60.21-4.41a35.41,35.41,0,0,0-1.83,10.95s52.4,13.22,82.75,1.93C1369.93,774.82,1373.85,767.45,1371,760.29Z"/><path class="cls-1" d="M1345.47,772.33c0-4.93,3.55-8.94,7.9-8.94s7.9,4,7.9,8.94-3.54,8.94-7.9,8.94S1345.47,777.26,1345.47,772.33Zm2.62,0c0,3.49,2.37,6.33,5.28,6.33s5.29-2.84,5.29-6.33-2.37-6.32-5.29-6.32S1348.09,768.85,1348.09,772.33Z"/><rect class="cls-13" x="1255.84" y="708.44" width="71.18" height="97.43" transform="translate(1768.18 2176.24) rotate(-138.95)"/><path class="cls-8" d="M1301.12,770.7s19.66,2.3,19.6,7-4.9,14.26-7.33,14.69-16-13-16-13Z"/><path class="cls-7" d="M1294.54,642s-26.26,1.84-36.33,26.31-29.16,65.55-29.16,72.47,10.67,28.21,68,40.46c0,0,5.93-6.23,5.57-11.16,0,0-35.77-30.72-35.67-34.31.18-6.79,5.86-15.76,37.26-47.17C1312.71,680.09,1294.54,642,1294.54,642Z"/><path class="cls-32" d="M1449.23,789.43l78.69-231.29c.37-1.06.85-2.06-.2-2.44l-1-.35c-1.08-.39-1.39.3-1.78,1.37l-83.88,228a4.4,4.4,0,0,0,2.35,5.54l1.94.86A2.83,2.83,0,0,0,1449.23,789.43Z"/><path class="cls-8" d="M1459.92,718.2a37.38,37.38,0,0,0,7.36-1.1c3-.78,6.8-2.17,6.8-2.17,2.24,1.64-5.56,6.1-7.55,9.15-1.63,2.49-3.48,3.21-8,4.17Z"/><path class="cls-12" d="M1334.14,1171.19c10.95-1.35,8.06,1.44,23.39,1.53s20.58-5,21.31-7.21c.64-2-6.76-3.53-14.67-5.39l-.28.2a42.28,42.28,0,0,1-22.28,4.15c-10.3-1-20.84-5.16-27.94-5.87a26.56,26.56,0,0,0-.67,7.12C1313.55,1172.55,1323.2,1172.55,1334.14,1171.19Z"/><path class="cls-12" d="M1255.17,1171.86h-17c-4.92,0-10.53-3.77-11.9-12.67s-11.49-13.74-13.68-21c-1.5-5,2-8.57,5.41-11.32,1.86,2.79,5.89,9.76,9.83,22.6,4.6,15,15.64,15.43,24.5,14.18a16.38,16.38,0,0,0,4.1,2.6C1264.29,1169.77,1255.17,1171.86,1255.17,1171.86Z"/><path class="cls-8" d="M1298.67,640.76a15.81,15.81,0,0,0,11.55-10c2.21-6.18,4-15.31,3.93-26.75l1.66.32,27.94,5.53s-.64,8.8-.66,17.08v.21a16.09,16.09,0,0,0,11.6,15.54c3.53,1-16.83,27.82-19.16,27.29C1330.69,668.84,1297,641.14,1298.67,640.76Z"/><path class="cls-33" d="M1343.75,609.81s-.64,8.8-.66,17.08c-15.63-.44-23.89-14.7-27.28-22.61Z"/><path class="cls-8" d="M1349,617.66s-37,.61-37-22.43-4.81-38.49,18.8-39.85,28.22,7.42,30.1,15.11S1358.59,616.91,1349,617.66Z"/><path class="cls-12" d="M1347.6,554.81s-10.13,27-25.67,31-22.29-.17-22.29-.17a44,44,0,0,0,14.4-26S1340,542,1347.6,554.81Z"/><path class="cls-12" d="M1345.09,557s7.51,2.81,10.6,8.28a37.2,37.2,0,0,1,5,21.16s7.64-18.38-.94-28.77C1350.66,546.66,1345.09,557,1345.09,557Z"/><path class="cls-1" d="M1341.74,604s.64,2.72,7.4,2.3c0,0,5.67-.35,5.5-3.34C1354.64,602.94,1349.14,600.82,1341.74,604Z"/><path class="cls-34" d="M1335.53,669.93s-25-26.73-26-37.65c0,0-6.38,1.77-13.89,9.07,0,0,6,15.07,13.19,20a45.78,45.78,0,0,0,9.34-2.43,80.5,80.5,0,0,1-4.68,6.92S1324.88,672.31,1335.53,669.93Z"/><path class="cls-34" d="M1344.3,633.3s9.87,18-8.77,36.63c0,0,11.7-2.23,17.71-10.48,0,0-1.86-4.43-3.45-5.45,0,0,3.52-1.4,5.72.65,0,0,1.34-9.67,0-12.62S1347.2,633.21,1344.3,633.3Z"/><path class="cls-12" d="M1333.67,669.93a1.87,1.87,0,1,1,1.86,1.87A1.86,1.86,0,0,1,1333.67,669.93Z"/><path class="cls-12" d="M1343.61,696.35a1.87,1.87,0,1,1,1.86,1.87A1.86,1.86,0,0,1,1343.61,696.35Z"/><path class="cls-12" d="M1345.47,727.34a1.87,1.87,0,1,1,1.87,1.86A1.87,1.87,0,0,1,1345.47,727.34Z"/><path class="cls-12" d="M1377.27,853c-4.08,49.67-8.87,91.5-8.87,91.5s-23.16,15.61-55.94,17.59c.58-.21,19.22-7.4,33-23.55C1359.49,922.11,1377.27,853,1377.27,853Z"/><path class="cls-35" d="M937.46,1195.82c-4.76-15.29-25.47-18.16-33.8-4.48a17,17,0,0,0-2.53,8.53c-.46,17.93,34.9,87.33,39.59,93.47,8.55,11.18,60.13,38.05,60.13,38.05l11-1.6a80.89,80.89,0,0,1-12.61-10.29c-13.26-13.23-32.57-34.74-36.11-37.72C957,1276.66,946.5,1224.86,937.46,1195.82Z"/><path class="cls-12" d="M952.43,1108.1c.29-1.15-25,11.44-26.3,12.86-11.87,13.16-8.49,30.34-1.69,30.51,4.35.11,3.51,7.35,3.51,7.35l48.52-20.53S970.63,1104.22,952.43,1108.1Z"/><path class="cls-12" d="M958.41,1110.76s1.73-18.91-19.39-18.91c0,0,6.4,1.74,9.71,5.21,0,0-13.47-7.91-28.13,4.24s-5.55,42.63-10,48.42-21.82,6.94-19.7,25.65S946,1217.51,942.59,1233c0,0,20.76-30.51,5.92-44.44,0,0,7.23,6.82,8,14.92,0,0,2-15.82-8.1-20.88-8.91-4.47-16.2-20.85-15.43-23.77S958.41,1110.76,958.41,1110.76Z"/><path class="cls-11" d="M899.09,1519.47l-10.5-1.54s-35.31-28.06-40.57-80.41a94,94,0,0,1-.25-16.19,2.75,2.75,0,0,0-.37-1.78v0c-1.13-1.73-3.94-6.07-7.75-12.24s-10.17-17.58-17.24-30.48c-12.73-23.23-27.55-51-32.64-59.86-16.19-28.2-8.39-47.17-8.39-47.17s45.19-4.47,57.57-15.3l4.46,6.88s9.8,43.34,9.33,43.54q.72,2.22,1.47,4.5c7.73,23.85,16.62,53.66,21.46,77.94,2.73,13.66,4.17,25.56,3.39,33.66a59.62,59.62,0,0,0,.8,12.34C884.23,1464.45,899.09,1519.47,899.09,1519.47Z"/><path class="cls-12" d="M921.11,1532.76H877.3s-1-6.68,1.24-11.75c2.19-4.86,5.32-5,.4-12.63,2.78,2.87,11.73,4,18.07,3.2.77,1.26,5,9.7,7.59,11.56C907.46,1525.2,920.23,1524.46,921.11,1532.76Z"/><path class="cls-12" d="M854.2,1309.4c-3.82,21.11-12.86,56.23-31.8,67.41-12.73-23.23-27.55-51-32.64-59.86-16.19-28.2-8.39-47.17-8.39-47.17s45.19-4.47,57.57-15.3l4.46,6.88s9.8,43.34,9.33,43.54Q853.45,1307.12,854.2,1309.4Z"/><path class="cls-11" d="M823.48,1273l.15-8.19c-16.33,2.06-56.29-19.51-56.29-19.51s-17.08,11.36-19.42,43.8c-1.14,15.83-8.36,82.79-9.15,102.79-.3,7.24-.39,12.41-.43,14.48v0a2.86,2.86,0,0,1-.7,1.69,94.07,94.07,0,0,0-8.84,13.56C703.9,1468,716.92,1531,716.92,1531l5.79-1.48s21.06-65.28,34.83-93.52a59.11,59.11,0,0,1,6.23-10.67c5.18-6.28,10.63-17,16-29.81,10.17-24.29,20.05-56.34,27.09-81.16C807.36,1314.45,823.48,1273,823.48,1273Z"/><path class="cls-8" d="M919,1218.36c-26.69-6.13-9.64-43.63-8.1-43,3.7-.75,11.82-7.24,19.09-19.92l1,.85,16.39,14.37a41.53,41.53,0,0,1-7,11.06c-3.26,3.73-11.38,7.3-11,8.75C930.66,1191.54,926.13,1220,919,1218.36Z"/><path class="cls-36" d="M935.86,1190.5a134.3,134.3,0,0,1,7.19,17.28c2.5,8,8.77,33.53,8.77,33.53s-12.92,14.74-30.89,13.88c0,0-9.66-15.12-6.26-28.78S935.86,1190.5,935.86,1190.5Z"/><path class="cls-35" d="M947.37,1170.69s-1.3,4.89-7,11.07c-8.41-11.15-10.2-18.9-9.41-25.44Z"/><path class="cls-8" d="M947.82,1177.89s-24.74-13.77-15.93-29,11.55-27.35,27.73-19.2,15.84,15.73,14.14,21.54S954.49,1181.08,947.82,1177.89Z"/><path class="cls-12" d="M977.94,1142.28c-1.13-6.78-4.57-7.43-7-7-9.13-15.11-24.06-9.21-24.06-9.21a33.67,33.67,0,0,1-19.51,11.71s2.88,5.35,14.71,8.65c3.61,1,7.71.4,11.67-.93a65.93,65.93,0,0,1-16.8,6.33c15.6,1.43,30.43-12.83,32-14.35.72,2.21,2,6.83,1.22,10.21-1,4.6-5.1,12.92-2.61,14C967.55,1161.7,979.64,1152.45,977.94,1142.28Z"/><path class="cls-12" d="M751.76,1532.76H708s-1.05-6.68,1.24-11.75c2.19-4.86,5.63-7.07,4.81-13,2.78,2.87,7.32,6.08,13.65,5.23.78,1.26,5,8,7.6,9.85C738.11,1525.2,750.88,1524.46,751.76,1532.76Z"/><path class="cls-37" d="M922.15,1248.09c-5.64,2-13.55,3-21.64,3.92-11.52,1.26-23.42,2.12-29.64,4.61a39.21,39.21,0,0,0-8.31,4.53h0a2,2,0,0,0-.25.18,26.23,26.23,0,0,0-3.43,3,18.54,18.54,0,0,0-4,6c-2.29,5.64.74,21.29,2.68,29.85a7.78,7.78,0,0,1-4,8.62q-6.57,3.39-12.92,6.27l-.66.3c0-.87,0-1.73,0-2.58a79.15,79.15,0,0,0-.74-10.81c-1,6-5,12.39-8.62,17.34-58.79,23.59-99.86,13.33-99.19,1.58,2.32-40.8,29.83-75.5,29.83-75.5,51.32-59.67,155.12-75.38,155.12-75.38s5-.6,11,6.61c8.63,10.38,9.06,13.09,9.06,13.09S938.73,1242.3,922.15,1248.09Z"/><path class="cls-36" d="M900.5,1252c-11.51,1.26-23.41,2.12-29.64,4.6-2.54-38,15.41-66.66,15.41-66.66S898,1237.61,900.5,1252Z"/><path class="cls-36" d="M857.54,1300.12a7.78,7.78,0,0,1-4,8.62q-6.57,3.39-12.92,6.27c-.22-.72-.42-1.48-.61-2.28a40,40,0,0,1-.74-10.81c1-18.06,13.28-31.74,19.59-37.61a18.54,18.54,0,0,0-4,6C852.57,1275.91,855.6,1291.56,857.54,1300.12Z"/><path class="cls-36" d="M916.43,1170s4.52-5.71,7.57-5.53c0,0,12.36,17.29,12.46,25.23C936.46,1189.66,921.05,1169.16,916.43,1170Z"/><path class="cls-35" d="M1034.94,1337.31s-6.56.12-8-.09a42.8,42.8,0,0,0-5.13-.87,21.92,21.92,0,0,0-5.25.88,3.47,3.47,0,0,1-.79.08H1004.9a6.52,6.52,0,0,1-2.29-2.45c-.51-.83-.58-2.81-1.76-3.47-6.6-3.68,11-1.6,11-1.6s11-.2,12,.57C1025.66,1331.72,1035.35,1336.79,1034.94,1337.31Z"/><path class="cls-35" d="M1004.9,1337.31s6.69,1.93,8.51,3.17l1.92,1.21s1.11-1.24-.64-2.61c-.93-.73-3.47-2.85-3.56-5.29S1003.5,1333.48,1004.9,1337.31Z"/><path class="cls-1" d="M1110.08,1525.73h0a28.51,28.51,0,0,1-28.51-28.52V1317.12h57v180.09A28.52,28.52,0,0,1,1110.08,1525.73Z"/><path class="cls-7" d="M1110.08,1517.46h0a21.19,21.19,0,0,1-21.19-21.19v-64.06h42.38v64.06A21.19,21.19,0,0,1,1110.08,1517.46Z"/><path class="cls-1" d="M981.11,1390.17h0a28.52,28.52,0,0,1-15.19-37.36l70-165.92,52.54,22.18-70,165.92A28.5,28.5,0,0,1,981.11,1390.17Z"/><path class="cls-13" d="M986.33,1383.4l-4-1.7a19,19,0,0,1-10.12-24.9l50.52-119.7,45.53,1.1-57,135.08A19,19,0,0,1,986.33,1383.4Z"/><path class="cls-8" d="M975.75,1356.91s4.78,4.25,8.41,5.15,7.77,11.3,8.43,12.79-3.47-.66-5.12-3.19-2.79-3.53-3.27-3,.29,7.49,3,11.35,4.41,7.27,2.43,7-13.77-3.09-16.2-10.25-.64-7.41-6.21-14.77S975.75,1356.91,975.75,1356.91Z"/><path class="cls-8" d="M912.6,1182.59s-28.87,2.85-31.18,21.61,27.68,95.17,32,102.09c7.82,12.59,53.87,55.77,53.87,55.77l8.49-5.15s-32.67-55.29-37.72-60.46C930.09,1288.32,922.38,1189.09,912.6,1182.59Z"/><path class="cls-37" d="M927.39,1218.43s3-48.37-34-36.67,5.75,94.88,5.75,94.88,21.72-1.07,29.43-20Z"/><rect class="cls-11" x="987.36" y="1498.26" width="176.35" height="8.01"/><rect class="cls-11" x="987.36" y="1504.78" width="12.12" height="27.75"/><rect class="cls-11" x="1149.9" y="1498.26" width="13.81" height="34.26"/><rect class="cls-1" x="1078.28" y="1313.86" width="61.93" height="7.13"/><rect class="cls-1" x="1031.23" y="1194.47" width="61.93" height="7.13" transform="translate(549.39 -318.73) rotate(22.88)"/><path class="cls-11" d="M1331.71,1255.32l-55.52,261.58-8.24-1.75c-.09,0,.68-26.13.68-26.13l50.18-236.43Z"/><polygon class="cls-38" points="1269.74 1515.53 1269.03 1533.01 1274.58 1516.56 1269.74 1515.53"/><path class="cls-11" d="M1341.38,1257.38,1285.87,1519l8.24,1.74c.09,0,10-24.15,10-24.15l50.18-236.43Z"/><rect class="cls-11" x="1337.76" y="1210.3" width="9.89" height="34.07" transform="translate(2401.29 2706.72) rotate(-168.02)"/><path class="cls-7" d="M1318.81,1252.59l3.33,18.69-7,32.78,21.5,4.57,7-32.79,10.64-15.72a18.11,18.11,0,0,0-14-21.49h0A18.12,18.12,0,0,0,1318.81,1252.59Z"/><path class="cls-11" d="M1341.5,1256.85a4.95,4.95,0,1,0-5.87,3.81A4.94,4.94,0,0,0,1341.5,1256.85Z"/><polygon class="cls-38" points="1292.32 1520.32 1285.87 1536.59 1287.48 1519.3 1292.32 1520.32"/><path class="cls-7" d="M1301.61,1493.3a8.42,8.42,0,1,0-10,6.5A8.43,8.43,0,0,0,1301.61,1493.3Z"/><path class="cls-13" d="M1850.82,1082.07c-.32,8.36-3,1.86-9,12.43-.24.49,6.37,7.3,6,7.79a70.45,70.45,0,0,1-6.71,15c-4.78,8.5-10.59,16.93-13.74,23.24a74.49,74.49,0,0,1-12.45-4.88c-11.88-6-18-13.52-20.78-18.36,7.13-14.48,15.67-30.39,24-48.58.89-2,1.79-4,2.68-5.85a3,3,0,0,1,.32-.57c.49-.89.89-1.71,1.3-2.44,0-.08.08-.16.16-.24a37.41,37.41,0,0,1,5.61-8.28s4.31-3.42,6.25-2.6a28.06,28.06,0,0,1,7.72,6.58,5.94,5.94,0,0,1,1.14,1.38,33.79,33.79,0,0,1,6,12A41.69,41.69,0,0,1,1850.82,1082.07Z"/><path class="cls-8" d="M1841.88,1513.62l10.73,4s46.62-64.66,52.36-121.55a86.45,86.45,0,0,0-1.54-29.08s.46-2.6,1.26-7.2c.36-2.15.82-4.73,1.34-7.7,1.51-8.68,3.6-20.56,6-34.09,5.49-31.13,12.59-70.93,18.11-100.19l-2.89-.93-31.29-10.1-6.47-20.54-23.3-6.13s-5.2,10.18-9.85,58.28c-.86,6.31-1.64,13.27-2.23,20.81a412.28,412.28,0,0,0,2.22,84.25c1.07,8.36,2.42,17,4.09,25.86,1.23,6.51,1.41,15.36.89,25.54C1858.94,1441.35,1841.88,1513.62,1841.88,1513.62Z"/><path class="cls-8" d="M1876.35,1193l1.17-10c19.62,5.22,72-14.56,72-14.56s19,16.71,16.52,56.76c-1.22,19.56-3.45,102.63-5.77,127.22-.84,8.91-1.58,15.25-1.88,17.78v0a3.4,3.4,0,0,0,.57,2.18,116.13,116.13,0,0,1,8.58,18c22.81,60.79-3.52,135.65-3.52,135.65l-6.83-2.75s-15-83.31-27.15-120.12c-2.07-6.24-4-11.15-5.87-14.08-5.29-8.54-10.2-22.5-14.66-39.1-8.42-31.38-15.2-72.21-19.72-103.72C1889.22,1246.32,1876.35,1193,1876.35,1193Z"/><path class="cls-39" d="M1924.36,1531.64h54.05s1.3-8.24-1.53-14.49c-2.7-6-6.94-8.72-5.92-16-3.44,3.54-9,7.5-16.85,6.45-1,1.55-6.18,9.86-9.38,12.16C1941.2,1522.31,1925.44,1521.41,1924.36,1531.64Z"/><path class="cls-39" d="M1808.29,1531.64h54s2-8.62-1.52-14.49c-3.15-5.19-1.94-8.15.39-12.44a21.06,21.06,0,0,1-9.11,1.71,19,19,0,0,1-8-2.82c-2.33,2.65-12.29,13.94-15.4,16.18C1825.13,1522.31,1809.37,1521.41,1808.29,1531.64Z"/><path class="cls-11" d="M1937.36,1142.46s33.48,37.28,34.15,93.55,0,123.78,0,123.78-35.86,17-123.6,6.24l21.67-204.25Z"/><path class="cls-40" d="M1859.47,934.32c0-1.46,1.18-17.22,25.19-18,0,0-11.8,1.4-13.85,6.59,0,0,8-6.41,14.59-4.35s10.39,13.53,10.43,17.31-3.6,15.93-7.75,17a12.76,12.76,0,0,1-5,0,56.41,56.41,0,0,1,3.23,5.75c9.58,19.67-.3,38.88-8.41,36.76-5.2-1.36-6.67,7.51-6.67,7.51l-50.53-40.9S1839.22,923.51,1859.47,934.32Z"/><path class="cls-8" d="M1838.86,1071.19a61,61,0,0,0,22.6,5.29c33.74,1.85,41.39-27.72,42.79-47.35a28.34,28.34,0,0,0-11.58-1.46c-.91,0-1.84.11-2.75.19a10,10,0,0,1-8.69-3.79c-3.85-4.94-8.35-13.72-11.33-25.92l-1.46.68-24.34,11.44s2.59,7.92,4.5,15.5a81.38,81.38,0,0,1,1.82,9,5.34,5.34,0,0,1-3.23,5.55h0v0A168.08,168.08,0,0,0,1838.86,1071.19Z"/><path class="cls-13" d="M1950.84,1160.76c-.1,4.24-9.62,8.09-22.36,10.76a185.42,185.42,0,0,1-23.2,3.21c-19.94,1.52-39.36-.12-41.65-7.06,0,0-31.28-47.31-39.82-65.72-.31-.67,6.87-8,6.61-8.62-6.73-17.86,6.15-35.84-2.54-41.48,0,0,4.87-5.87,19.31-11.53v0c-.22.84-1.62,13.49.77,18.17,6.93,13.55,28.31,6.17,34.34-2.87,5.62-8.42,10.46-19.74,10.41-25.62,0-1.46,0-2.35,0-2.35s16.1-2.18,25.15,1.48a69.56,69.56,0,0,0-4.88,16.32c-.13.82-.24,1.63-.32,2.44a32.83,32.83,0,0,0-.12,5.14c.12,2.23,1.27,4.2,3.1,6.13a47.5,47.5,0,0,0,6.49,5.38c1.67,1.21,3.47,2.48,5.33,3.85.15,10.08-.55,26.66,1.31,44.35a25.56,25.56,0,0,0,.46,2.89,29.71,29.71,0,0,0,3.85,9.69,30.4,30.4,0,0,0,3.19,4.29c3,3.41,6,6.47,8.51,9.49C1950.08,1145.54,1953.36,1151.76,1950.84,1160.76Z"/><path class="cls-35" d="M1844.1,1010.28s2.59,7.91,4.5,15.5c14.22-4,18.54-18.93,19.84-26.95Z"/><path class="cls-8" d="M1841.1,1018.66s34.05-7.88,28.81-29-4.36-36.36-26.32-32.23-24.16,13.24-24.13,20.72S1832.11,1020.16,1841.1,1018.66Z"/><path class="cls-40" d="M1817.54,966.15c3.67-7.66,8-7.25,10.67-5.89,16-14.8,31.68-2.71,31.68-2.71A41.57,41.57,0,0,0,1879,978.1s-5.23,5.35-20.39,5.23c-4.63,0-9.28-2.16-13.52-5.09a81.5,81.5,0,0,0,17.75,13.24c-19-3.63-31.7-25.6-33-27.93-1.61,2.37-4.68,7.43-4.94,11.69-.35,5.8,1.64,17.06-1.68,17.49C1823.24,992.73,1812.06,977.63,1817.54,966.15Z"/><path class="cls-7" d="M1757.18,998.32l-192,531.82,385.46-238Zm-68.66,379.44,86.76-240.32,76.63,128.47Z"/><polygon class="cls-41" points="1907.94 1280.94 1909.65 1279.88 1923.78 1301.35 1922.07 1302.4 1907.94 1280.94"/><polygon class="cls-41" points="1903.7 1295.99 1905.41 1294.93 1913.72 1307.56 1912.01 1308.61 1903.7 1295.99"/><polygon class="cls-41" points="1895.24 1301.21 1896.96 1300.15 1905.27 1312.78 1903.56 1313.83 1895.24 1301.21"/><polygon class="cls-41" points="1887.22 1306.16 1888.93 1305.1 1897.24 1317.73 1895.53 1318.79 1887.22 1306.16"/><polygon class="cls-41" points="1879.8 1310.74 1881.52 1309.68 1889.83 1322.31 1888.12 1323.37 1879.8 1310.74"/><polygon class="cls-41" points="1871.53 1315.85 1873.24 1314.79 1881.55 1327.42 1879.84 1328.47 1871.53 1315.85"/><polygon class="cls-41" points="1857.43 1312.12 1859.15 1311.06 1873.28 1332.53 1871.57 1333.58 1857.43 1312.12"/><polygon class="cls-41" points="1853.2 1327.17 1854.91 1326.11 1863.22 1338.73 1861.51 1339.79 1853.2 1327.17"/><polygon class="cls-41" points="1844.75 1332.39 1846.46 1331.33 1854.77 1343.95 1853.06 1345.01 1844.75 1332.39"/><polygon class="cls-41" points="1836.72 1337.34 1838.43 1336.28 1846.74 1348.91 1845.03 1349.96 1836.72 1337.34"/><polygon class="cls-41" points="1829.3 1341.92 1831.02 1340.86 1839.33 1353.49 1837.62 1354.55 1829.3 1341.92"/><polygon class="cls-41" points="1821.03 1347.03 1822.74 1345.97 1831.05 1358.6 1829.34 1359.65 1821.03 1347.03"/><polygon class="cls-41" points="1803.76 1345.26 1805.47 1344.2 1819.61 1365.66 1817.89 1366.72 1803.76 1345.26"/><polygon class="cls-41" points="1799.52 1360.31 1801.23 1359.25 1809.55 1371.88 1807.84 1372.93 1799.52 1360.31"/><polygon class="cls-41" points="1791.07 1365.53 1792.78 1364.47 1801.1 1377.09 1799.38 1378.15 1791.07 1365.53"/><polygon class="cls-41" points="1783.05 1370.48 1784.76 1369.42 1793.07 1382.05 1791.36 1383.11 1783.05 1370.48"/><polygon class="cls-41" points="1775.63 1375.06 1777.34 1374 1785.65 1386.63 1783.94 1387.68 1775.63 1375.06"/><polygon class="cls-41" points="1767.36 1380.17 1769.07 1379.11 1777.38 1391.74 1775.67 1392.79 1767.36 1380.17"/><polygon class="cls-41" points="1753.26 1376.44 1754.97 1375.38 1769.11 1396.85 1767.39 1397.9 1753.26 1376.44"/><polygon class="cls-41" points="1749.02 1391.48 1750.73 1390.43 1759.05 1403.05 1757.34 1404.11 1749.02 1391.48"/><polygon class="cls-41" points="1740.57 1396.7 1742.28 1395.65 1750.6 1408.27 1748.88 1409.33 1740.57 1396.7"/><polygon class="cls-41" points="1732.55 1401.66 1734.26 1400.6 1742.57 1413.23 1740.86 1414.28 1732.55 1401.66"/><polygon class="cls-41" points="1725.13 1406.24 1726.84 1405.18 1735.15 1417.81 1733.44 1418.86 1725.13 1406.24"/><polygon class="cls-41" points="1716.85 1411.35 1718.57 1410.29 1726.88 1422.92 1725.17 1423.97 1716.85 1411.35"/><polygon class="cls-41" points="1700.52 1409.01 1702.23 1407.95 1716.36 1429.41 1714.65 1430.47 1700.52 1409.01"/><polygon class="cls-41" points="1696.28 1424.05 1697.99 1423 1706.3 1435.62 1704.59 1436.68 1696.28 1424.05"/><polygon class="cls-41" points="1687.82 1429.27 1689.54 1428.21 1697.85 1440.84 1696.14 1441.9 1687.82 1429.27"/><polygon class="cls-41" points="1679.8 1434.23 1681.51 1433.17 1689.82 1445.79 1688.11 1446.85 1679.8 1434.23"/><polygon class="cls-41" points="1672.38 1438.81 1674.09 1437.75 1682.41 1450.37 1680.69 1451.43 1672.38 1438.81"/><polygon class="cls-41" points="1664.11 1443.91 1665.82 1442.86 1674.13 1455.48 1672.42 1456.54 1664.11 1443.91"/><polygon class="cls-41" points="1650.02 1440.18 1651.73 1439.13 1665.86 1460.59 1664.15 1461.65 1650.02 1440.18"/><polygon class="cls-41" points="1645.78 1455.23 1647.49 1454.17 1655.8 1466.8 1654.09 1467.86 1645.78 1455.23"/><polygon class="cls-41" points="1637.32 1460.45 1639.04 1459.39 1647.35 1472.02 1645.64 1473.08 1637.32 1460.45"/><polygon class="cls-41" points="1629.3 1465.4 1631.01 1464.35 1639.32 1476.97 1637.61 1478.03 1629.3 1465.4"/><polygon class="cls-41" points="1621.88 1469.98 1623.59 1468.93 1631.91 1481.55 1630.19 1482.61 1621.88 1469.98"/><polygon class="cls-41" points="1613.61 1475.09 1615.32 1474.04 1623.63 1486.66 1621.92 1487.72 1613.61 1475.09"/><polygon class="cls-41" points="1596.34 1473.32 1598.05 1472.27 1612.18 1493.73 1610.47 1494.79 1596.34 1473.32"/><path class="cls-8" d="M1737.34,1048.64a12.19,12.19,0,0,0-8.37,9c-1.7,7.34,3.42,14,8.15,12.56C1741.37,1068.9,1744.67,1050.84,1737.34,1048.64Z"/><path class="cls-9" d="M1946.51,1135.59l-1.77,3.53-16.26,32.4a185.42,185.42,0,0,1-23.2,3.21c20.81-18.69,12.68-69,12.68-69h2.62l8.61,9.9Z"/><path class="cls-8" d="M1957.45,1126.44c5.88,22.72-24.45,86.29-24.45,86.29l-11.79-12.94s4-31,7.25-41.19c1.87-5.83.79-15.53.49-18.12C1928.5,1136.46,1956.64,1123.3,1957.45,1126.44Z"/><path class="cls-8" d="M1922.87,1190.5s-4.36,27.61-8.14,29.92-11.44,10.39-13.18,14.92c0,0-.16,1.92,1.62,2.12s6.27-5.07,9.07-3.63c.2,1,2.2,6.94,1.58,11.07-.46,3.1-2.25,7.06-2.09,9.62s14.67.37,17.85-7.37c2.58-6.24-1.42-14,.54-21.82,1.72-6.84,7.24-32.79,7.24-32.79Z"/><path class="cls-13" d="M1917.82,1029.15s12.68,3,22.17,19.33,25.42,75.33,20,101.77c0,0-9.46,9.15-33.37,2,0,0-6.63-39.33-10-55.26s-17.63-51.18-17.63-51.18Z"/><polygon class="cls-7" points="1906.8 1225.57 1912.24 1233.83 1907.3 1239.82 1897.01 1240.46 1896.05 1230.57 1906.8 1225.57"/><rect class="cls-12" x="143.71" y="1531.3" width="2521.53" height="6.46" rx="2.81"/></svg>